<svg width="77" height="70" viewBox="0 0 77 70" fill="none" xmlns="http://www.w3.org/2000/svg">
<path d="M77.5 38.75C77.5 43.0513 74.0512 46.5 69.75 46.5H7.75C3.4875 46.5 0 43.0513 0 38.75C0 34.4487 3.4875 31 7.75 31H42.625L52.3125 38.75L62 31H69.75C74.0512 31 77.5 34.4875 77.5 38.75ZM38.75 0C3.875 0 3.875 23.25 3.875 23.25H73.625C73.625 23.25 73.625 0 38.75 0ZM3.875 58.125C3.875 64.5575 9.0675 69.75 15.5 69.75H62C68.4325 69.75 73.625 64.5575 73.625 58.125V54.25H3.875V58.125Z" fill="white"/>
</svg>
