<svg width="35" height="35" viewBox="0 0 35 35" fill="none" xmlns="http://www.w3.org/2000/svg">
<path d="M17.4074 10.3086C13.0864 10.3086 9.50616 13.8271 9.50616 18.2099C9.50616 22.5926 13.0247 26.1111 17.4074 26.1111C21.7901 26.1111 25.3086 22.5308 25.3086 18.2099C25.3086 13.8889 21.7284 10.3086 17.4074 10.3086ZM17.4074 23.2716C14.6296 23.2716 12.3457 20.9876 12.3457 18.2099C12.3457 15.4321 14.6296 13.1481 17.4074 13.1481C20.1852 13.1481 22.4691 15.4321 22.4691 18.2099C22.4691 20.9876 20.1852 23.2716 17.4074 23.2716Z" fill="white"/>
<path d="M25.6173 11.9136C26.6059 11.9136 27.4074 11.1121 27.4074 10.1234C27.4074 9.13478 26.6059 8.33331 25.6173 8.33331C24.6286 8.33331 23.8271 9.13478 23.8271 10.1234C23.8271 11.1121 24.6286 11.9136 25.6173 11.9136Z" fill="white"/>
<path d="M30.2469 5.49382C28.642 3.82715 26.358 2.96295 23.7654 2.96295H11.0494C5.679 2.96295 2.09875 6.5432 2.09875 11.9136V24.5679C2.09875 27.2222 2.96295 29.5062 4.69135 31.1728C6.35801 32.7778 8.58024 33.5802 11.1111 33.5802H23.7037C26.358 33.5802 28.5802 32.716 30.1852 31.1728C31.8518 29.5679 32.716 27.2839 32.716 24.6296V11.9136C32.716 9.32098 31.8518 7.09875 30.2469 5.49382ZM30 24.6296C30 26.5432 29.321 28.0864 28.2099 29.1358C27.0988 30.1852 25.5555 30.7407 23.7037 30.7407H11.1111C9.25925 30.7407 7.71604 30.1852 6.60493 29.1358C5.49382 28.0247 4.93826 26.4815 4.93826 24.5679V11.9136C4.93826 10.0617 5.49382 8.51851 6.60493 7.4074C7.65431 6.35801 9.25925 5.80246 11.1111 5.80246H23.8271C25.679 5.80246 27.2222 6.35801 28.3333 7.46912C29.3827 8.58024 30 10.1234 30 11.9136V24.6296Z" fill="white"/>
</svg>
