<svg width="34" height="34" viewBox="0 0 34 34" fill="none" xmlns="http://www.w3.org/2000/svg">
<path d="M32.999 24.3445C32.775 23.7352 32.3482 23.4091 31.8626 23.1391C31.7713 23.0855 31.6873 23.0427 31.6156 23.0098C31.4707 22.9349 31.3225 22.8623 31.1751 22.7858C29.661 21.9829 28.4784 20.9702 27.6583 19.7696C27.4253 19.4316 27.2233 19.0734 27.0547 18.6991C26.9847 18.4991 26.9883 18.3854 27.0382 18.2816C27.088 18.2017 27.1539 18.133 27.2317 18.0799C27.4919 17.9078 27.7603 17.7333 27.9423 17.6155C28.2667 17.4055 28.5236 17.2392 28.6891 17.1215C29.3108 16.6867 29.7455 16.225 30.0172 15.7085C30.2069 15.3518 30.3175 14.9584 30.3415 14.5552C30.3656 14.152 30.3025 13.7483 30.1567 13.3716C29.745 12.2879 28.7214 11.6152 27.4814 11.6152C27.2198 11.615 26.9589 11.6426 26.7032 11.6975C26.6349 11.7124 26.5665 11.728 26.4998 11.7453C26.5114 11.0042 26.4949 10.222 26.429 9.45207C26.1951 6.74548 25.2474 5.32671 24.2593 4.19535C23.6266 3.48636 22.8813 2.88655 22.0535 2.42004C20.5537 1.56367 18.8534 1.12891 17 1.12891C15.1466 1.12891 13.4539 1.56367 11.9531 2.42004C11.1232 2.8867 10.3764 3.4877 9.74306 4.1986C8.75493 5.33003 7.80718 6.75126 7.57337 9.45539C7.50749 10.2253 7.49102 11.0116 7.50171 11.7486C7.43531 11.7313 7.36751 11.7154 7.29911 11.7008C7.04341 11.6459 6.78257 11.6182 6.52103 11.6185C5.28009 11.6185 4.25491 12.2913 3.84485 13.3749C3.69829 13.7517 3.63457 14.1557 3.65801 14.5594C3.68146 14.963 3.79152 15.3569 3.98072 15.7142C4.25332 16.2305 4.68808 16.6925 5.30978 17.1272C5.47446 17.2425 5.73219 17.4088 6.05658 17.6213C6.23196 17.7349 6.48822 17.9013 6.73924 18.0675C6.82712 18.1244 6.90184 18.1993 6.95838 18.2874C7.0111 18.3953 7.0127 18.5114 6.93447 18.7257C6.7681 19.092 6.56942 19.4428 6.3408 19.7739C5.53881 20.9473 4.39091 21.942 2.92526 22.7382C2.14857 23.1498 1.3414 23.4248 1.00067 24.3512C0.743815 25.0503 0.911756 25.8457 1.56473 26.516C1.80438 26.7662 2.08234 26.9766 2.38817 27.1394C3.02449 27.4891 3.70113 27.7598 4.40306 27.9455C4.54794 27.9828 4.68547 28.0444 4.80987 28.1275C5.0478 28.3358 5.01407 28.6495 5.33109 29.109C5.49021 29.3465 5.69241 29.552 5.92722 29.7151C6.59255 30.1745 7.34021 30.2034 8.13237 30.2338C8.84797 30.261 9.65899 30.2923 10.5854 30.5977C10.969 30.7246 11.3676 30.9699 11.8295 31.2565C12.9387 31.9382 14.4571 32.8711 16.9982 32.8711C19.5393 32.8711 21.0684 31.9332 22.1857 31.2489C22.6444 30.9674 23.0405 30.7243 23.4135 30.6009C24.3398 30.2946 25.1509 30.2641 25.8665 30.237C26.6586 30.2065 27.4063 30.1777 28.0716 29.7182C28.3497 29.5243 28.5814 29.2712 28.7501 28.9771C28.9782 28.5893 28.9724 28.3184 29.1865 28.129C29.3032 28.0499 29.4324 27.9908 29.5686 27.9544C30.2801 27.7681 30.966 27.4949 31.6107 27.1409C31.9356 26.9666 32.2281 26.7376 32.4752 26.464L32.4835 26.4541C33.0961 25.7988 33.2501 25.0263 32.999 24.3445ZM30.7403 25.5582C29.3627 26.3191 28.4471 26.2376 27.7348 26.6962C27.1296 27.0857 27.4878 27.9256 27.0481 28.2286C26.5079 28.6016 24.9113 28.2021 22.8486 28.8833C21.1474 29.4457 20.0621 31.0629 17.0023 31.0629C13.9425 31.0629 12.8827 29.4492 11.1535 28.8791C9.09493 28.1982 7.49507 28.5975 6.95406 28.2245C6.51518 27.9215 6.87172 27.0816 6.26735 26.6921C5.55422 26.2335 4.63861 26.315 3.26181 25.5582C2.38485 25.0741 2.88223 24.7746 3.17455 24.6327C8.16451 22.2168 8.96072 18.4867 8.99612 18.21C9.03895 17.8749 9.0867 17.6114 8.71781 17.2705C8.36128 16.9411 6.77948 15.9623 6.34047 15.6557C5.61418 15.1485 5.2947 14.6421 5.53031 14.0196C5.695 13.589 6.09682 13.4267 6.51837 13.4267C6.65163 13.4272 6.78445 13.4421 6.91448 13.4712C7.71136 13.6439 8.48559 14.0435 8.9327 14.1514C8.98654 14.1652 9.04181 14.1726 9.09739 14.1736C9.33645 14.1736 9.42012 14.0534 9.40366 13.78C9.35266 12.908 9.22914 11.2084 9.3666 9.62007C9.55519 7.43471 10.2592 6.35189 11.0958 5.39425C11.4976 4.93392 13.3858 2.93881 16.9965 2.93881C20.6072 2.93881 22.5002 4.92568 22.9021 5.38435C23.7395 6.342 24.4443 7.42482 24.6313 9.61018C24.7688 11.1986 24.6502 12.8989 24.5942 13.7701C24.5753 14.0575 24.6618 14.1637 24.9005 14.1637C24.9561 14.1628 25.0114 14.1553 25.0652 14.1415C25.5131 14.0336 26.2871 13.6343 27.084 13.4613C27.214 13.4322 27.3468 13.4173 27.48 13.4169C27.9041 13.4169 28.3035 13.5815 28.4682 14.0097C28.7036 14.6322 28.3858 15.1386 27.6587 15.6459C27.2199 15.9522 25.6381 16.9304 25.2814 17.2606C24.9116 17.6015 24.9602 17.8649 25.0031 18.2002C25.0385 18.4809 25.8339 22.2111 30.8247 24.6228C31.1199 24.7703 31.6173 25.07 30.7403 25.5582Z" fill="white"/>
</svg>
