<svg width="45" height="45" viewBox="0 0 45 45" fill="none" xmlns="http://www.w3.org/2000/svg">
<mask id="mask0_7_203" style="mask-type:luminance" maskUnits="userSpaceOnUse" x="0" y="0" width="45" height="45">
<path d="M44.4334 0H0V44.5059H44.4334V0Z" fill="white"/>
</mask>
<g mask="url(#mask0_7_203)">
<path d="M2.35614 38.844C2.29236 38.8083 2.22508 38.7814 2.15587 38.7637C0.498439 38.6433 -0.257132 37.6317 0.0778817 35.7755C0.274554 34.7055 0.585881 33.667 1.00496 32.6831C1.26732 32.0652 1.80776 31.6006 2.20942 31.0842C2.07647 30.4226 1.81613 29.7116 1.82424 29.0039C1.832 28.319 2.11593 27.6382 2.29173 26.9007C0.983771 25.5122 0.947409 25.2151 1.87451 22.8069C1.36142 22.2033 1.30492 21.4726 1.38515 20.6417C1.60661 18.3521 1.87093 16.0751 2.64075 13.9268C4.59795 8.46596 8.06817 4.71867 12.9186 2.76661C18.8088 0.396376 24.7551 0.360874 30.6184 2.96567C33.3274 4.16852 35.7189 5.96221 37.4264 8.71395C38.1026 9.76295 38.67 10.897 39.1176 12.0938C39.7107 13.772 40.1333 15.5311 40.5779 17.2727C40.8874 18.4842 40.9836 19.7107 40.2077 20.8488C40.9323 21.5147 41.5625 22.1782 41.8666 23.1513C42.1815 24.1582 41.9437 25.0344 41.4371 25.9081C42.3639 26.9842 42.4969 28.2453 42.0818 29.6715C42.8665 30.3549 43.5844 31.1396 43.9081 32.25C44.0953 32.8255 44.2159 33.4263 44.2673 34.0372C44.3656 36.0055 43.687 36.8791 42.0061 37.1033C41.9655 37.9863 41.958 38.8663 41.8787 39.7375C41.7175 41.5115 40.813 42.6627 39.3354 43.0815C37.9293 43.4627 36.5034 43.7437 35.0664 43.9236C32.3721 44.292 29.6736 44.6353 26.9691 44.8794C22.514 45.2801 18.0495 45.4619 13.5873 45.0241C11.0951 44.7798 8.6075 44.4685 6.124 44.1286C5.40892 44.0082 4.70743 43.7999 4.03205 43.507C3.62623 43.3555 3.26877 43.0714 3.00477 42.6896C2.7408 42.3078 2.58205 41.846 2.54847 41.3618C2.45538 40.5203 2.41697 39.67 2.35614 38.844ZM38.9588 19.8531C38.5752 18.0217 38.2633 16.2824 37.8391 14.5793C37.4272 12.8197 36.7204 11.1671 35.7571 9.71234C34.0745 7.23384 31.8313 5.69057 29.3128 4.61481C25.4956 2.98473 21.5474 2.69023 17.5545 3.44102C11.9935 4.48552 7.55 7.44876 4.83552 13.2977C3.75024 15.6358 3.24397 18.1424 2.84654 20.779C3.13756 20.9166 3.43853 21.0257 3.74588 21.1051C4.75833 21.2582 5.77691 21.4994 6.79006 21.4806C10.7686 21.406 14.7457 21.2334 18.7239 21.1197C21.9496 21.0275 25.1758 20.9697 28.4018 20.8917C31.3555 20.8205 34.3107 20.7574 37.2376 20.2285C37.7942 20.1277 38.3455 19.988 38.9588 19.8531ZM36.2226 35.8036C35.7307 36.2358 35.266 36.6054 34.8396 37.0272C34.0648 37.7921 33.2404 37.9228 32.3383 37.3663C31.9871 37.1696 31.6478 36.9466 31.3228 36.6989C30.4961 36.014 29.694 35.9499 28.8227 36.6213C28.2406 37.0483 27.6351 37.4335 27.0102 37.7734C26.503 38.0838 25.9368 38.2484 25.3607 38.2524C24.7849 38.2563 24.2167 38.0999 23.7063 37.7966C23.2478 37.5395 22.7956 37.2636 22.3597 36.9603C22.1097 36.7648 21.8172 36.6521 21.5142 36.6347C21.2113 36.6167 20.91 36.6949 20.6436 36.8601C20.1103 37.1754 19.5773 37.497 19.0706 37.8626C18.6964 38.1571 18.2605 38.3342 17.8069 38.3767C17.3533 38.4188 16.8978 38.3245 16.4864 38.103C15.9612 37.8461 15.4624 37.5245 14.9985 37.1445C14.2266 36.4899 13.4467 36.4493 12.6314 36.9481C12.1554 37.2395 11.7037 37.5844 11.2469 37.9155C10.0713 38.768 8.91548 38.7005 7.77997 37.8223C7.50613 37.6106 7.24761 37.3727 6.98754 37.1387C6.30904 36.5284 5.60374 36.5214 4.89473 37.0434C4.57595 37.2783 4.28963 37.5697 4.03414 37.7951C4.13994 38.5618 4.21561 39.2069 4.31789 39.8462C4.54199 41.2479 4.61934 41.3319 5.82698 41.6218C5.91513 41.6431 6.00655 41.6483 6.0956 41.666C9.84237 42.3854 13.6312 42.7861 17.4304 42.8643C23.5381 43.0351 29.5889 42.2137 35.6343 41.3618C36.5584 41.2317 37.4761 41.0222 38.3879 40.8019C39.0504 40.6416 39.4125 40.1242 39.4776 39.3547C39.5305 38.7221 39.5751 38.0886 39.6277 37.3941C38.2488 37.5666 37.2142 36.9435 36.2226 35.8036ZM1.80564 36.8259C2.21683 36.5889 2.53834 36.4273 2.83826 36.2245C3.14823 36.014 3.42872 35.748 3.73659 35.533C5.22406 34.4941 6.55526 34.5885 7.91066 35.8183C8.09874 35.9893 8.28564 36.1625 8.47149 36.3378C9.08051 36.9111 9.71103 36.9591 10.3826 36.4704C10.8566 36.1063 11.3476 35.7715 11.8535 35.4679C13.2034 34.7061 14.516 34.7144 15.7589 35.7987C16.0745 36.0614 16.4078 36.2957 16.7556 36.4991C17.0022 36.6683 17.2877 36.7496 17.5754 36.7322C17.863 36.715 18.1394 36.5999 18.369 36.402C18.8646 36.0134 19.3885 35.6735 19.9349 35.3857C21.0165 34.8295 22.0917 34.8243 23.1174 35.6047C23.3921 35.814 23.6894 35.9844 23.9727 36.1793C24.3511 36.4673 24.7945 36.6249 25.2498 36.6329C25.7051 36.6411 26.1528 36.4997 26.5389 36.2254C27.1131 35.8494 27.696 35.489 28.2564 35.0879C29.4554 34.2308 30.6232 34.2742 31.8273 35.0992C33.3059 36.1127 33.318 36.0901 34.686 34.9273C35.832 33.9526 36.6936 33.9205 37.924 34.817C38.2676 35.0672 38.6001 35.3381 38.9644 35.62C39.4405 34.9453 39.5737 33.8408 40.4334 33.9089C41.1034 33.962 41.7498 34.4181 42.4257 34.7031C43.1021 33.5457 42.5092 31.5881 41.2767 30.8428C40.2741 31.1837 39.3704 31.5826 38.4341 31.7946C34.9371 32.5875 31.376 32.7241 27.8341 33.0619C26.1034 33.2271 24.3679 32.9852 22.6388 33.2238C22.311 33.2687 21.9549 33.0338 21.6102 32.9351C21.273 32.8383 20.9338 32.6697 20.5958 32.6703C17.0081 32.6779 13.4194 32.7693 9.83299 32.7158C8.12265 32.6905 6.41465 32.3924 4.70377 32.2464C4.37806 32.2158 4.0504 32.2644 3.74226 32.3881C2.48138 32.9284 1.68415 34.6915 1.80564 36.8265V36.8259ZM13.9155 23.2015C13.9256 23.2704 13.9356 23.3394 13.9454 23.4084C16.3693 25.5464 18.7807 27.7032 21.2221 29.8148C22.483 30.9054 22.304 31.2927 23.6784 29.6215C25.283 27.6717 26.8119 25.6425 28.3701 23.6439C28.5023 23.4743 28.6062 23.2761 28.845 22.8992L13.9155 23.2015ZM18.9858 30.6217C18.0578 29.7352 17.2894 29.0249 16.547 28.2809C16.2052 27.9381 15.8578 27.8648 15.4009 27.8732C12.0579 27.9333 8.71362 28.3177 5.36948 27.8521C4.96162 27.7954 4.53393 27.9075 4.11748 27.9546C3.71316 28.0001 3.56366 28.313 3.52927 28.7282C3.48256 29.2924 3.68719 29.6917 4.25231 29.8577C4.94617 30.0886 5.65999 30.2338 6.38126 30.2907C10.268 30.4485 14.157 30.5544 18.0442 30.6736C18.2771 30.6817 18.5118 30.6502 18.9858 30.6225V30.6217ZM40.3802 26.8363C39.2602 27.1625 38.2262 27.5791 37.1621 27.7515C34.0933 28.2641 30.995 28.5143 27.8932 28.4999C27.6934 28.4784 27.4932 28.5378 27.328 28.6673C26.7493 29.3435 26.2076 30.0602 25.5808 30.8539C26.4864 30.8539 27.2337 30.9074 27.9736 30.8443C30.6759 30.6143 33.3803 30.3982 36.0741 30.068C37.3595 29.908 38.6292 29.6137 39.8671 29.1889C40.9841 28.8076 41.1287 27.8746 40.3802 26.8371V26.8363ZM29.1403 26.1936C29.5497 26.1936 29.7901 26.2086 30.0284 26.1912C32.0116 26.047 34.0031 25.9815 35.9739 25.7176C37.2223 25.517 38.4521 25.1864 39.6476 24.7301C40.4138 24.4589 40.5642 23.9573 40.3501 23.2323C40.1005 22.3883 39.563 21.9521 38.9043 22.093C36.7731 22.5503 34.6107 22.7927 32.442 22.8175C32.0253 22.8222 31.6092 22.8631 31.3394 22.8777L29.1403 26.1936ZM3.58953 22.8412C3.37526 23.2772 3.18264 23.7265 3.01269 24.1872C2.81099 24.8327 2.88517 25.0457 3.4771 25.2724C4.07511 25.5026 4.69139 25.6665 5.31712 25.7622C7.86921 26.1431 10.4321 25.9763 12.9923 25.8919C13.2237 25.86 13.4531 25.8103 13.6785 25.7429C13.2656 25.3869 12.9878 25.1325 12.6965 24.8999C12.2529 24.5457 11.7153 24.2893 11.3741 23.8374C11.0215 23.3709 10.6546 23.3225 10.1927 23.322C8.0257 23.3198 5.85071 23.4815 3.58953 22.8412Z" fill="white"/>
<path d="M18.379 8.05895C18.4193 7.66062 18.3581 7.24362 18.776 7.09206C19.1849 6.9437 19.4944 7.17343 19.6631 7.58102C19.8461 8.00874 19.9899 8.45698 20.0914 8.91842C20.1774 9.33502 20.105 9.75361 19.6927 9.94405C19.3288 10.112 18.9346 9.91956 18.7425 9.41859C18.5971 8.97426 18.4758 8.52018 18.379 8.05895Z" fill="white"/>
<path d="M11.8193 13.5885C11.9531 13.6948 12.2797 13.8187 12.3321 14.0296C12.3638 14.1845 12.3655 14.3455 12.337 14.5013C12.3086 14.6571 12.2506 14.8039 12.1673 14.9317C11.7192 15.4796 11.0822 15.6534 10.4462 15.6805C9.98638 15.7005 9.78186 15.1014 10.0936 14.613C10.4799 14.0092 11.0346 13.6825 11.8193 13.5885Z" fill="white"/>
<path d="M33.578 18.2187C33.2863 17.9719 32.962 17.8312 32.8798 17.5858C32.8143 17.3902 32.9806 16.969 33.1568 16.8208C33.5133 16.5112 33.9176 16.2811 34.3493 16.1428C34.5755 16.0768 35.0008 16.243 35.1013 16.4517C35.1416 16.6037 35.1472 16.765 35.1174 16.9201C35.0878 17.0753 35.0239 17.2194 34.9318 17.3386C34.5543 17.6933 34.0756 17.9088 33.578 18.2187Z" fill="white"/>
<path d="M23.7757 15.0221C23.7507 14.3549 24.1911 14.0212 24.6736 14.2722C25.1135 14.5009 25.6194 15.621 25.5355 16.1799C25.4602 16.6811 25.0287 16.9431 24.6679 16.6552C24.1973 16.2611 23.8778 15.6765 23.7757 15.0221Z" fill="white"/>
<path d="M32.2773 10.5194C32.2738 11.1169 31.5543 11.9386 31.0345 11.937C30.7068 11.936 30.3973 11.5226 30.5598 11.1459C30.7581 10.6637 31.0531 10.2412 31.4214 9.91218C31.8136 9.58782 32.2808 9.97134 32.2773 10.5194Z" fill="white"/>
<path d="M16.4395 19.4437C15.885 19.4078 15.236 18.6608 15.2468 18.1436C15.2523 18.0413 15.2761 17.9412 15.3165 17.8495C15.3569 17.7578 15.4131 17.6764 15.4818 17.61C15.5505 17.5436 15.6305 17.4937 15.7167 17.4632C15.8028 17.4328 15.8935 17.4224 15.9832 17.4328C16.4202 17.4965 16.9205 18.2366 16.9064 18.8018C16.8965 19.1939 16.7784 19.4732 16.4395 19.4437Z" fill="white"/>
</g>
</svg>
