<svg width="44" height="44" viewBox="0 0 44 44" fill="none" xmlns="http://www.w3.org/2000/svg">
<path d="M39.2578 11.7588C39.673 11.7588 40.0095 11.4297 40.0095 11.0238C40.0095 10.6179 39.673 10.2888 39.2578 10.2888C38.8427 10.2888 38.5061 10.6179 38.5061 11.0238C38.5061 11.4297 38.8427 11.7588 39.2578 11.7588Z" fill="white"/>
<path d="M9.72656 40.6338C10.1417 40.6338 10.4783 40.3047 10.4783 39.8988C10.4783 39.4929 10.1417 39.1638 9.72656 39.1638C9.31141 39.1638 8.97485 39.4929 8.97485 39.8988C8.97485 40.3047 9.31141 40.6338 9.72656 40.6338Z" fill="white"/>
<path d="M6.97437 32.3952L8.96308 34.3398" stroke="white" stroke-width="2" stroke-linecap="round" stroke-linejoin="round"/>
<path d="M8.96308 32.3952L6.97437 34.3398" stroke="white" stroke-width="2" stroke-linecap="round" stroke-linejoin="round"/>
<path d="M29.1494 37.8218C29.5128 38.2857 29.9955 38.647 30.5483 38.869L33.0469 39.875V43.3125" stroke="white" stroke-width="2" stroke-linecap="round" stroke-linejoin="round"/>
<path d="M42.1875 43.4108V26.8125L33.8491 15.4605" stroke="white" stroke-width="2" stroke-linecap="round" stroke-linejoin="round"/>
<path d="M33.75 24.3546V3.48824C33.75 3.12043 33.6759 2.75623 33.532 2.41643C33.388 2.07662 33.177 1.76787 32.911 1.50779C32.645 1.24772 32.3292 1.04142 31.9817 0.900674C31.6342 0.759928 31.2617 0.687491 30.8855 0.6875H15.5206C15.1445 0.6875 14.772 0.759946 14.4245 0.9007C14.0769 1.04145 13.7612 1.24776 13.4952 1.50784C13.2292 1.76792 13.0182 2.07668 12.8743 2.41649C12.7303 2.7563 12.6562 3.1205 12.6563 3.48831V9.49534" stroke="white" stroke-width="2" stroke-linecap="round" stroke-linejoin="round"/>
<path d="M12.6563 27.1036V35.0117C12.6562 35.3795 12.7303 35.7437 12.8743 36.0835C13.0182 36.4233 13.2292 36.7321 13.4952 36.9921C13.7612 37.2522 14.0769 37.4585 14.4245 37.5993C14.772 37.74 15.1445 37.8125 15.5206 37.8125H30.8855C31.5926 37.8124 32.2746 37.5568 32.8005 37.0947C33.3263 36.6325 33.6588 35.9966 33.734 35.3092" stroke="white" stroke-width="2" stroke-linecap="round" stroke-linejoin="round"/>
<path d="M19.2683 0.6875H27.1379C27.2132 0.6875 27.2854 0.716756 27.3387 0.768831C27.392 0.820906 27.4219 0.891536 27.4219 0.965181C27.4219 1.19957 27.3747 1.43166 27.2829 1.6482C27.1912 1.86475 27.0567 2.0615 26.8872 2.22724C26.5449 2.56196 26.0806 2.75 25.5965 2.75H20.8098C20.3256 2.75 19.8613 2.56196 19.519 2.22724C19.1767 1.89252 18.9844 1.43854 18.9844 0.965181C18.9844 0.891548 19.0143 0.820929 19.0675 0.768855C19.1208 0.716782 19.193 0.687518 19.2683 0.6875Z" stroke="white" stroke-width="2" stroke-linecap="round" stroke-linejoin="round"/>
<path d="M19.6875 35.75H26.7188" stroke="white" stroke-width="2" stroke-linecap="round" stroke-linejoin="round"/>
<path d="M2.83551 21.3834V23.4459C2.83551 24.3576 3.20591 25.2319 3.86521 25.8766C4.52452 26.5212 5.41873 26.8834 6.35113 26.8834H19.0107C19.4724 26.8834 19.9295 26.7945 20.3561 26.6217C20.7826 26.449 21.1702 26.1958 21.4966 25.8766C21.8231 25.5574 22.082 25.1784 22.2587 24.7614C22.4354 24.3443 22.5263 23.8973 22.5263 23.4459V21.3834" stroke="white" stroke-width="2" stroke-linejoin="round"/>
<path d="M22.1747 17.9459C22.4056 17.9459 22.6342 17.9903 22.8474 18.0767C23.0607 18.1631 23.2545 18.2897 23.4177 18.4493C23.5809 18.6089 23.7104 18.7984 23.7988 19.0069C23.8871 19.2154 23.9326 19.4389 23.9326 19.6646C23.9326 20.1205 23.7474 20.5577 23.4177 20.88C23.0881 21.2023 22.6409 21.3834 22.1747 21.3834H3.19037C2.72417 21.3834 2.27706 21.2023 1.94741 20.88C1.61775 20.5577 1.43256 20.1205 1.43256 19.6646C1.43256 19.2088 1.61775 18.7716 1.94741 18.4493C2.27706 18.127 2.72417 17.9459 3.19037 17.9459" stroke="white" stroke-width="2" stroke-linecap="round" stroke-linejoin="round"/>
<path d="M16.1982 9.69589H9.16363C7.48531 9.69589 5.87573 10.3478 4.68897 11.5082C3.50222 12.6686 2.83551 14.2424 2.83551 15.8834V17.9459H15.4951V18.9771C15.4951 19.2506 15.6062 19.5129 15.804 19.7063C16.0018 19.8997 16.27 20.0084 16.5498 20.0084C16.8295 20.0084 17.0977 19.8997 17.2955 19.7063C17.4933 19.5129 17.6044 19.2506 17.6044 18.9771V17.9459H22.5263V15.8834C22.5263 15.0708 22.3626 14.2662 22.0446 13.5155C21.7266 12.7648 21.2605 12.0827 20.6728 11.5082C20.0852 10.9336 19.3876 10.4778 18.6199 10.1669C17.8521 9.85594 17.0292 9.69589 16.1982 9.69589Z" stroke="white" stroke-width="2" stroke-linecap="round" stroke-linejoin="round"/>
<path d="M5.65131 13.8209L6.35443 13.1334" stroke="white" stroke-width="2" stroke-linecap="round" stroke-linejoin="round"/>
<path d="M14.7919 13.8209L15.4951 13.1334" stroke="white" stroke-width="2" stroke-linecap="round" stroke-linejoin="round"/>
<path d="M11.9794 12.4459L12.6826 11.7584" stroke="white" stroke-width="2" stroke-linecap="round" stroke-linejoin="round"/>
<path d="M8.54797 12.9315L9.52623 13.5567" stroke="white" stroke-width="2" stroke-linecap="round" stroke-linejoin="round"/>
<path d="M17.6044 13.1334L18.751 13.3548" stroke="white" stroke-width="2" stroke-linecap="round" stroke-linejoin="round"/>
<path d="M35.9257 26.8505L28.8282 19.25L28.0738 19.9237C27.407 20.5135 27.0071 21.338 26.962 22.216C26.9169 23.094 27.2303 23.9535 27.8332 24.6056L31.4728 28.5031C31.4728 28.5031 30.3621 32.5875 35.1563 36.4375" stroke="white" stroke-width="2" stroke-linecap="round" stroke-linejoin="round"/>
<path d="M29.8396 4.8125H20.7854C20.179 4.8125 19.6875 5.29311 19.6875 5.88596V6.48904C19.6875 7.08189 20.179 7.5625 20.7854 7.5625H29.8396C30.446 7.5625 30.9375 7.08189 30.9375 6.48904V5.88596C30.9375 5.29311 30.446 4.8125 29.8396 4.8125Z" stroke="white" stroke-width="2" stroke-linecap="round" stroke-linejoin="round"/>
<path d="M29.8396 9.625H25.0041C24.3978 9.625 23.9062 10.1056 23.9062 10.6985V11.3015C23.9062 11.8944 24.3978 12.375 25.0041 12.375H29.8396C30.446 12.375 30.9375 11.8944 30.9375 11.3015V10.6985C30.9375 10.1056 30.446 9.625 29.8396 9.625Z" stroke="white" stroke-width="2" stroke-linecap="round" stroke-linejoin="round"/>
<path d="M22.5 23.375H2.8125" stroke="white" stroke-width="2" stroke-linejoin="round"/>
<path d="M2.8125 15.8125H22.5" stroke="white" stroke-width="2" stroke-linejoin="round"/>
</svg>
