<svg width="40" height="41" viewBox="0 0 40 41" fill="none" xmlns="http://www.w3.org/2000/svg">
<path d="M35.4688 0.46796H4.53125C3.4457 0.46047 2.40161 0.893856 1.62821 1.67296C0.854818 2.45207 0.415332 3.51322 0.40625 4.62343V21.1891C0.415332 22.2993 0.854818 23.3604 1.62821 24.1395C2.40161 24.9186 3.4457 25.352 4.53125 25.3445H17.745C17.7004 25.4486 17.6658 25.557 17.6419 25.668C17.5706 26.2502 17.6391 26.8415 17.8413 27.3906L17.9031 27.5875C18.3225 29.1625 18.79 30.6953 19.1956 31.9961L19.2231 32.0805C19.4716 33.188 19.9895 34.2134 20.7288 35.0617C21.0794 35.4062 21.4369 35.7578 21.7944 36.1023C21.5382 36.2069 21.3183 36.3871 21.1628 36.6201C21.0073 36.853 20.9232 37.1281 20.9212 37.4101V39.1258C20.9223 39.4984 21.0676 39.8554 21.3252 40.1189C21.5828 40.3824 21.9319 40.5309 22.2962 40.532H35.2281C35.5925 40.5309 35.9416 40.3824 36.1992 40.1189C36.4568 39.8554 36.602 39.4984 36.6031 39.1258V37.4101C36.602 37.0375 36.4568 36.6805 36.1992 36.417C35.9416 36.1535 35.5925 36.005 35.2281 36.0039H35.0563C35.2969 35.2094 35.5513 34.3937 35.84 33.6062C36.61 31.4828 36.5894 29.2891 36.5756 27.1656C36.5688 26.5117 36.5688 25.8367 36.5894 25.1758C37.4472 24.9381 38.2054 24.4197 38.7479 23.6998C39.2905 22.9798 39.5876 22.098 39.5938 21.1891V4.62343C39.5847 3.51322 39.1452 2.45207 38.3718 1.67296C37.5984 0.893856 36.5543 0.46047 35.4688 0.46796ZM35.2281 37.4101V39.1258H22.2962V37.4101H35.2281ZM35.2281 24.5711C35.1869 25.443 35.1938 26.3289 35.2006 27.1797C35.2144 29.268 35.235 31.2367 34.5475 33.1141C34.2175 34.0141 33.9425 34.9351 33.6675 35.8211L33.6125 36.0039H23.6781C23.0112 35.35 22.3444 34.7031 21.6775 34.0422C21.1168 33.3511 20.7234 32.5344 20.5294 31.6586L20.5019 31.5672C20.1031 30.2875 19.6425 28.7687 19.2231 27.2078L19.1613 26.9898C19.0315 26.6523 18.9729 26.2905 18.9894 25.9281C19.0232 25.7776 19.095 25.6387 19.1975 25.5252C19.3 25.4118 19.4297 25.3277 19.5737 25.2812H19.5806C19.6211 25.2685 19.6625 25.2591 19.7044 25.2531C19.8623 25.2307 20.0233 25.2501 20.1719 25.3094C20.3508 25.3702 20.5021 25.495 20.5981 25.6609C20.7158 25.8757 20.8125 26.1018 20.8869 26.3359C20.9419 26.4766 20.99 26.6242 21.045 26.7508C21.1138 26.9266 21.1687 27.1023 21.2237 27.2781C21.3474 27.6943 21.5109 28.0971 21.7119 28.4805C21.8245 28.7358 22.0207 28.943 22.2667 29.0662C22.5127 29.1894 22.7931 29.221 23.0594 29.1555C23.3275 29.0711 23.7744 28.7969 23.8019 27.918C23.8225 26.8281 23.8431 25.7453 23.8569 24.6555C23.8775 23.2773 23.905 21.8969 23.9394 20.5141C23.9875 18.5242 24.0563 16.8859 24.1525 15.3953L24.1663 15.1562C24.1744 14.9265 24.2691 14.709 24.4306 14.5491C24.5921 14.3892 24.8078 14.2994 25.0325 14.2984C25.2636 14.2985 25.4865 14.3862 25.6581 14.5445C25.734 14.6177 25.7945 14.7059 25.8359 14.8039C25.8773 14.9018 25.8987 15.0074 25.8988 15.1141V24.557C25.8988 24.7435 25.9712 24.9223 26.1001 25.0542C26.229 25.1861 26.4039 25.2601 26.5863 25.2601C26.7686 25.2601 26.9435 25.1861 27.0724 25.0542C27.2013 24.9223 27.2738 24.7435 27.2738 24.557V20.4648C27.2738 20.0992 27.6656 19.8039 28.14 19.8039C28.3758 19.7972 28.6066 19.8742 28.7931 20.0219C28.8601 20.0813 28.9137 20.1547 28.9505 20.2372C28.9873 20.3197 29.0063 20.4093 29.0062 20.5V24.557C29.0062 24.7435 29.0787 24.9223 29.2076 25.0542C29.3365 25.1861 29.5114 25.2601 29.6937 25.2601C29.8761 25.2601 30.051 25.1861 30.1799 25.0542C30.3088 24.9223 30.3812 24.7435 30.3812 24.557V21.2242C30.3822 21.0905 30.4178 20.9595 30.4844 20.8445C30.5604 20.735 30.6575 20.6425 30.7698 20.5728C30.882 20.5031 31.0071 20.4576 31.1372 20.4392C31.2672 20.4207 31.3997 20.4297 31.5262 20.4656C31.6528 20.5014 31.7708 20.5634 31.8731 20.6476C31.9298 20.708 31.9805 20.7739 32.0244 20.8445C32.0866 20.961 32.1197 21.0915 32.1206 21.2242V24.557C32.1206 24.7435 32.1931 24.9223 32.322 25.0542C32.4509 25.1861 32.6258 25.2601 32.8081 25.2601C32.9905 25.2601 33.1653 25.1861 33.2943 25.0542C33.4232 24.9223 33.4956 24.7435 33.4956 24.557V22.4336C33.5061 22.2091 33.6032 21.9979 33.7655 21.8464C33.9279 21.6949 34.1423 21.6152 34.3619 21.625C34.5965 21.6243 34.8226 21.7147 34.9944 21.8781C35.0678 21.9499 35.1264 22.0361 35.1665 22.1315C35.2067 22.227 35.2276 22.3297 35.2281 22.4336V24.5711ZM22.86 14.6289H22.4062V12.2312L27.9062 12.2172V14.6219H27.2119C27.1203 14.2017 26.9071 13.8194 26.6 13.525C26.1753 13.1177 25.6147 12.8914 25.0325 12.8922C24.5315 12.887 24.0437 13.056 23.649 13.3716C23.2543 13.6871 22.9761 14.1305 22.86 14.6289ZM35.4688 19.1219C35.4648 19.3045 35.3902 19.4781 35.2613 19.6046C35.1325 19.7311 34.9598 19.8003 34.7812 19.7969H32.9525C32.9044 19.7476 32.8769 19.6844 32.8288 19.6422C32.4033 19.2264 31.836 18.9968 31.2475 19.0023C30.8173 19.0045 30.396 19.1286 30.0306 19.3609C29.9351 19.2114 29.8194 19.0765 29.6869 18.9601C29.5991 18.8836 29.5048 18.8154 29.405 18.7562C29.3438 18.7157 29.2794 18.6804 29.2125 18.6508C29.1781 18.6367 29.1506 18.6226 29.1162 18.6086C28.8083 18.4708 28.4761 18.399 28.14 18.3976C28.0802 18.3986 28.0205 18.4033 27.9613 18.4117C27.9131 18.4187 27.865 18.4187 27.8169 18.4258C27.7523 18.4317 27.688 18.4411 27.6244 18.4539C27.5044 18.4774 27.387 18.5127 27.2738 18.5594V16.0281H27.9062C28.2697 16.0281 28.6184 15.8809 28.8761 15.6187C29.1338 15.3565 29.2794 15.0006 29.2812 14.6289V12.2172C29.2776 11.8467 29.1312 11.4926 28.8737 11.2319C28.6162 10.9712 28.2686 10.825 27.9062 10.825H22.4062C22.0439 10.825 21.6963 10.9712 21.4388 11.2319C21.1813 11.4926 21.0349 11.8467 21.0312 12.2172V14.6289C21.0331 15.0006 21.1787 15.3565 21.4364 15.6187C21.6941 15.8809 22.0428 16.0281 22.4062 16.0281H22.7362C22.7294 16.1476 22.7225 16.2672 22.7156 16.3937C22.7087 16.5203 22.7019 16.6469 22.695 16.7664C22.6812 17.0336 22.6675 17.3008 22.6606 17.568L22.64 18.032C22.6331 18.2992 22.6194 18.5664 22.6125 18.8406C22.6056 19.0094 22.5987 19.1781 22.5987 19.3539C22.5919 19.5016 22.585 19.6422 22.585 19.7969H5.21875C5.04015 19.8003 4.86752 19.7311 4.73866 19.6046C4.6098 19.4781 4.53522 19.3045 4.53125 19.1219V5.31249C4.53522 5.12985 4.6098 4.95626 4.73866 4.82975C4.86752 4.70323 5.04015 4.6341 5.21875 4.63749H34.7812C34.9598 4.6341 35.1325 4.70323 35.2613 4.82975C35.3902 4.95626 35.4648 5.12985 35.4688 5.31249V19.1219ZM38.2188 21.1891C38.2153 21.7197 38.0607 22.2378 37.7737 22.6799C37.4867 23.122 37.0799 23.4689 36.6031 23.6781V22.4336C36.6019 22.1375 36.5422 21.8448 36.4276 21.5729C36.313 21.3011 36.1459 21.0557 35.9362 20.8516C36.2133 20.6601 36.4406 20.4026 36.5987 20.1012C36.7568 19.7999 36.8409 19.4638 36.8438 19.1219V5.31249C36.8387 4.75724 36.6189 4.22663 36.2324 3.83664C35.8459 3.44664 35.3242 3.22899 34.7812 3.23124H5.21875C4.67582 3.22899 4.1541 3.44664 3.76762 3.83664C3.38114 4.22663 3.16133 4.75724 3.15625 5.31249V19.1219C3.16133 19.6771 3.38114 20.2077 3.76762 20.5977C4.1541 20.9877 4.67582 21.2054 5.21875 21.2031H22.5506C22.5231 22.3492 22.4956 23.4883 22.4819 24.6344C22.475 25.2883 22.4613 25.9422 22.4544 26.5891C22.4131 26.4695 22.365 26.35 22.3169 26.2164C22.2687 26.0969 22.2206 25.9703 22.1794 25.8508C22.0754 25.5337 21.9419 25.2276 21.7806 24.9367C21.5465 24.5586 21.2122 24.2561 20.8167 24.0644C20.4212 23.8727 19.9807 23.7997 19.5462 23.8539C19.4246 23.8694 19.3048 23.8976 19.1887 23.9383H4.53125C4.17417 23.9425 3.81979 23.8747 3.48833 23.7387C3.15687 23.6028 2.85484 23.4015 2.59947 23.1462C2.3441 22.8909 2.14041 22.5867 2.00002 22.2509C1.85963 21.9151 1.78529 21.5542 1.78125 21.1891V4.62343C1.78529 4.25823 1.85963 3.89743 2.00002 3.56162C2.14041 3.22581 2.3441 2.92157 2.59947 2.66628C2.85484 2.41099 3.15687 2.20964 3.48833 2.07373C3.81979 1.93783 4.17417 1.87003 4.53125 1.87421H35.4688C35.8258 1.87003 36.1802 1.93783 36.5117 2.07373C36.8431 2.20964 37.1452 2.41099 37.4005 2.66628C37.6559 2.92157 37.8596 3.22581 38 3.56162C38.1404 3.89743 38.2147 4.25823 38.2188 4.62343V21.1891Z" fill="white"/>
<path d="M21.0312 22.5742C21.0312 22.7607 20.9588 22.9395 20.8299 23.0714C20.701 23.2033 20.5261 23.2773 20.3438 23.2773H18.9688C18.7864 23.2773 18.6115 23.2033 18.4826 23.0714C18.3537 22.9395 18.2812 22.7607 18.2812 22.5742C18.2812 22.3877 18.3537 22.2089 18.4826 22.077C18.6115 21.9452 18.7864 21.8711 18.9688 21.8711H20.3438C20.5261 21.8711 20.701 21.9452 20.8299 22.077C20.9588 22.2089 21.0312 22.3877 21.0312 22.5742Z" fill="white"/>
<path d="M12.0938 8.07578C12.0938 8.26226 12.0213 8.4411 11.8924 8.57296C11.7635 8.70482 11.5886 8.7789 11.4062 8.7789H7.96875C7.78641 8.7789 7.61155 8.70482 7.48261 8.57296C7.35368 8.4411 7.28125 8.26226 7.28125 8.07578C7.28125 7.88929 7.35368 7.71045 7.48261 7.57859C7.61155 7.44673 7.78641 7.37265 7.96875 7.37265H11.4062C11.5886 7.37265 11.7635 7.44673 11.8924 7.57859C12.0213 7.71045 12.0938 7.88929 12.0938 8.07578Z" fill="white"/>
<path d="M12.0938 12.2172C12.0938 12.4037 12.0213 12.5825 11.8924 12.7144C11.7635 12.8462 11.5886 12.9203 11.4062 12.9203H7.96875C7.78641 12.9203 7.61155 12.8462 7.48261 12.7144C7.35368 12.5825 7.28125 12.4037 7.28125 12.2172C7.28125 12.0307 7.35368 11.8519 7.48261 11.72C7.61155 11.5881 7.78641 11.5141 7.96875 11.5141H11.4062C11.5886 11.5141 11.7635 11.5881 11.8924 11.72C12.0213 11.8519 12.0938 12.0307 12.0938 12.2172Z" fill="white"/>
<path d="M12.0938 16.3586C12.0938 16.5451 12.0213 16.7239 11.8924 16.8558C11.7635 16.9876 11.5886 17.0617 11.4062 17.0617H7.96875C7.78641 17.0617 7.61155 16.9876 7.48261 16.8558C7.35368 16.7239 7.28125 16.5451 7.28125 16.3586C7.28125 16.1721 7.35368 15.9933 7.48261 15.8614C7.61155 15.7295 7.78641 15.6555 7.96875 15.6555H11.4062C11.5886 15.6555 11.7635 15.7295 11.8924 15.8614C12.0213 15.9933 12.0938 16.1721 12.0938 16.3586Z" fill="white"/>
<path d="M18.7625 7.19686L16.7 9.26405C16.5724 9.39457 16.3993 9.4679 16.2188 9.4679C16.0383 9.4679 15.8651 9.39457 15.7375 9.26405L14.3625 7.88592C14.2328 7.7541 14.1593 7.57517 14.158 7.38815C14.1567 7.20113 14.2277 7.02117 14.3556 6.88748C14.4835 6.75559 14.6573 6.68082 14.8389 6.6795C15.0205 6.67818 15.1953 6.75043 15.325 6.88045L16.2188 7.78045L17.8 6.19139C17.9297 6.06136 18.1045 5.98912 18.2861 5.99044C18.4677 5.99175 18.6415 6.06653 18.7694 6.19842C18.8973 6.3321 18.9683 6.51207 18.967 6.69909C18.9657 6.88611 18.8922 7.06503 18.7625 7.19686Z" fill="white"/>
<path d="M18.7625 11.3383L16.7 13.4055C16.5724 13.536 16.3992 13.6093 16.2187 13.6093C16.0382 13.6093 15.8651 13.536 15.7375 13.4055L14.3625 12.0273C14.2321 11.8968 14.1578 11.7186 14.1559 11.5321C14.1539 11.3455 14.2245 11.1658 14.3522 11.0324C14.4798 10.8991 14.654 10.8231 14.8365 10.8211C15.0189 10.8191 15.1946 10.8913 15.325 11.0219L16.2187 11.9219L17.8 10.3328C17.9297 10.2028 18.1045 10.1305 18.2861 10.1319C18.4677 10.1332 18.6415 10.2079 18.7694 10.3398C18.8973 10.4735 18.9683 10.6535 18.967 10.8405C18.9657 11.0275 18.8922 11.2065 18.7625 11.3383Z" fill="white"/>
<path d="M18.7625 15.4797L16.7 17.5469C16.5724 17.6774 16.3992 17.7507 16.2187 17.7507C16.0382 17.7507 15.8651 17.6774 15.7375 17.5469L14.3625 16.1687C14.2321 16.0382 14.1578 15.86 14.1559 15.6735C14.1539 15.4869 14.2245 15.3071 14.3522 15.1738C14.4798 15.0405 14.654 14.9645 14.8365 14.9625C15.0189 14.9605 15.1946 15.0327 15.325 15.1633L16.2187 16.0633L17.8 14.4742C17.9297 14.3442 18.1045 14.2719 18.2861 14.2732C18.4677 14.2746 18.6415 14.3493 18.7694 14.4812C18.8973 14.6149 18.9683 14.7949 18.967 14.9819C18.9657 15.1689 18.8922 15.3478 18.7625 15.4797Z" fill="white"/>
</svg>
